<svg xmlns="http://www.w3.org/2000/svg" width="24" height="25" viewBox="0 0 24 25" fill="none">
<g clip-path="url(#clip0_688_4653)">
<path d="M8.001 8.15737C7.959 8.15737 8.043 8.16237 8.001 8.15737V8.15737ZM4.024 6.40537C3.901 6.94337 4.238 7.47937 4.776 7.60237C5.788 7.83337 6.957 8.02537 8 8.15737C8.497 8.15737 8.927 7.78837 8.991 7.28237C9.06 6.73437 8.672 6.23437 8.124 6.16537C7.145 6.04237 6.169 5.87037 5.222 5.65337C4.685 5.52737 4.147 5.86737 4.024 6.40537ZM8.001 16.1814C7.959 16.1814 8.043 16.1864 8.001 16.1814V16.1814ZM8.124 14.1894C7.149 14.0674 6.173 13.8954 5.223 13.6784C4.686 13.5544 4.148 13.8914 4.025 14.4304C3.902 14.9684 4.239 15.5044 4.777 15.6274C5.792 15.8594 6.96 16.0514 8.001 16.1814C8.498 16.1814 8.929 15.8114 8.992 15.3054C9.06 14.7574 8.672 14.2574 8.124 14.1894ZM8.001 12.1574C7.959 12.1574 8.043 12.1624 8.001 12.1574V12.1574ZM8.125 10.1654C7.146 10.0424 6.17 9.87037 5.223 9.65337C4.686 9.52637 4.148 9.86737 4.025 10.4054C3.902 10.9434 4.239 11.4794 4.777 11.6024C5.789 11.8334 6.958 12.0254 8.001 12.1574C8.498 12.1574 8.928 11.7884 8.992 11.2824C9.061 10.7344 8.673 10.2344 8.125 10.1654ZM15.999 16.1824C15.957 16.1874 16.04 16.1824 15.999 16.1824V16.1824ZM20.235 20.8574C19.229 21.1244 18.198 21.3404 17.148 21.5064C18.893 21.9404 20.955 22.3214 23.044 22.4134C23.596 22.4374 24.023 22.9044 23.999 23.4564C23.976 23.9934 23.533 24.4124 23.001 24.4124C22.986 24.4124 22.971 24.4124 22.956 24.4124C18.007 24.1954 13.355 22.5194 12 21.9914C10.645 22.5194 5.994 24.1954 1.044 24.4124C1.029 24.4124 1.014 24.4124 0.999 24.4124C0.467 24.4124 0.024 23.9934 0.001 23.4564C-0.023 22.9044 0.404 22.4374 0.956 22.4134C3.045 22.3214 5.107 21.9404 6.852 21.5064C5.801 21.3404 4.77 21.1244 3.764 20.8574C1.548 20.2694 0 18.2744 0 16.0054V4.91137C0 3.50937 0.635 2.20937 1.743 1.34737C2.837 0.495367 4.232 0.201367 5.566 0.539367C8.142 1.19237 10.127 1.48537 12.003 1.49137C13.872 1.48537 15.857 1.19237 18.434 0.539367C19.767 0.202367 21.164 0.495367 22.257 1.34737C23.364 2.20937 24 3.50937 24 4.91137V16.0054C24 18.2744 22.452 20.2694 20.235 20.8574ZM11 3.46437C9.245 3.37437 7.373 3.06137 5.076 2.47937C4.877 2.42837 4.676 2.40437 4.477 2.40437C3.939 2.40437 3.412 2.58437 2.972 2.92537C2.354 3.40637 2 4.13037 2 4.91137V16.0054C2 17.3674 2.936 18.5674 4.276 18.9234C6.414 19.4904 8.671 19.8154 11 19.8934V3.46437ZM19.723 18.9234C21.064 18.5684 22 17.3674 22 16.0054V4.91137C22 4.13037 21.646 3.40637 21.028 2.92537C20.424 2.45637 19.661 2.29037 18.924 2.47937C16.625 3.06237 14.752 3.37537 13 3.46537V19.8944C15.326 19.8174 17.585 19.4914 19.723 18.9244V18.9234ZM15.999 8.15737C15.956 8.16237 16.04 8.15737 15.999 8.15737V8.15737ZM18.777 5.65337C17.829 5.87037 16.852 6.04237 15.875 6.16537C15.327 6.23437 14.938 6.73437 15.008 7.28237C15.071 7.78837 15.502 8.15737 15.999 8.15737C17.042 8.02637 18.21 7.83437 19.223 7.60237C19.761 7.47937 20.098 6.94337 19.975 6.40537C19.852 5.86637 19.313 5.52637 18.777 5.65337ZM15.999 12.1574C15.956 12.1624 16.04 12.1574 15.999 12.1574V12.1574ZM18.777 9.65337C17.829 9.87037 16.852 10.0424 15.875 10.1654C15.327 10.2344 14.938 10.7344 15.008 11.2824C15.071 11.7884 15.502 12.1574 15.999 12.1574C17.042 12.0264 18.21 11.8344 19.223 11.6024C19.761 11.4794 20.098 10.9434 19.975 10.4054C19.852 9.86537 19.313 9.52737 18.777 9.65337ZM18.777 13.6784C17.826 13.8954 16.85 14.0674 15.876 14.1894C15.328 14.2574 14.939 14.7574 15.008 15.3054C15.071 15.8114 15.502 16.1824 15.999 16.1824C17.039 16.0524 18.207 15.8604 19.223 15.6274C19.761 15.5044 20.098 14.9684 19.975 14.4304C19.852 13.8904 19.313 13.5534 18.777 13.6784Z" fill="#FBAF40"/>
</g>
<defs>
<clipPath id="clip0_688_4653">
<rect width="24" height="24" fill="white" transform="translate(0 0.411133)"/>
</clipPath>
</defs>
</svg>