<svg xmlns="http://www.w3.org/2000/svg" width="79" height="80" viewBox="0 0 79 80" fill="none">
<path d="M71.4999 54.3289H61.7706C61.3374 54.3291 60.9118 54.2153 60.5365 53.9989C60.1612 53.7825 59.8495 53.4712 59.6326 53.0962C59.4157 52.7212 59.3013 52.2958 59.3009 51.8626C59.3004 51.4294 59.414 51.0037 59.6302 50.6283C61.2391 47.8378 61.8082 44.5678 61.2366 41.3979C60.6649 38.2279 58.9895 35.3627 56.5072 33.31C53.3176 30.6684 49.2713 29.639 45.1164 30.4265C39.658 31.4535 35.3327 35.8454 34.3527 41.3532C33.7658 44.5373 34.3349 47.8264 35.9573 50.6283C36.1741 51.0038 36.2882 51.4297 36.2881 51.8633C36.288 52.2968 36.1737 52.7227 35.9567 53.0981C35.7398 53.4734 35.4278 53.7851 35.0522 54.0016C34.6765 54.2181 34.2505 54.3318 33.8169 54.3314H7.50006C6.16565 54.3301 4.8863 53.7993 3.94296 52.8554C2.99962 51.9116 2.4694 50.632 2.46875 49.2976V8.1485C2.47006 6.81451 3.00056 5.53554 3.94383 4.59227C4.8871 3.649 6.16608 3.11849 7.50006 3.11719H71.4999C72.8339 3.11849 74.1129 3.649 75.0562 4.59227C75.9994 5.53554 76.5299 6.81451 76.5312 8.1485V49.3001C76.5293 50.6337 75.9985 51.912 75.0553 52.8547C74.1121 53.7975 72.8335 54.3276 71.4999 54.3289ZM65.533 49.3914H71.4999L71.5938 8.1485L71.4999 8.05469H7.50006L7.40625 49.3001L30.0398 49.3791C29.1382 46.505 28.9501 43.4547 29.4917 40.4916C30.8273 32.9718 36.7399 26.9777 44.203 25.5754C49.7478 24.5287 55.3815 25.9655 59.6573 29.5106C62.504 31.8634 64.5838 35.0122 65.6306 38.5539C66.6773 42.0956 66.6433 45.8691 65.533 49.3914Z" fill="#FBAF40"/>
<path d="M47.7951 62.4313C37.5375 62.4313 29.1956 54.0869 29.1956 43.8317C29.1956 33.5765 37.5399 25.2346 47.7926 25.2346C58.0478 25.2346 66.3922 33.5765 66.3922 43.8317C66.3922 54.0869 58.0478 62.4313 47.7926 62.4313H47.7951ZM47.7951 30.1721C44.1733 30.176 40.701 31.6164 38.1398 34.1771C35.5786 36.7379 34.1376 40.2099 34.1331 43.8317C34.137 47.4535 35.5773 50.9258 38.138 53.4871C40.6988 56.0483 44.1709 57.4892 47.7926 57.4938C51.4148 57.4899 54.8876 56.0492 57.4489 53.4879C60.0101 50.9266 61.4508 47.4539 61.4547 43.8317C61.4501 40.2099 60.0092 36.7379 57.448 34.1771C54.8868 31.6164 51.4144 30.176 47.7926 30.1721H47.7951Z" fill="#FBAF40"/>
<path d="M47.7925 51.2405C51.8828 51.2405 55.1987 47.9246 55.1987 43.8342C55.1987 39.7439 51.8828 36.428 47.7925 36.428C43.7021 36.428 40.3862 39.7439 40.3862 43.8342C40.3862 47.9246 43.7021 51.2405 47.7925 51.2405Z" fill="#FBAF40"/>
<path d="M63.506 77.1797C63.1818 77.1797 62.8608 77.1159 62.5613 76.9917C62.2618 76.8676 61.9897 76.6857 61.7606 76.4563L46.9654 61.6611C46.629 61.3243 46.3971 60.8974 46.2978 60.4318C46.1984 59.9663 46.2358 59.4819 46.4054 59.0371C46.5749 58.5923 46.8695 58.206 47.2536 57.9247C47.6376 57.6435 48.0948 57.4793 48.5701 57.4519C50.8365 57.3276 53.0359 56.6381 54.9676 55.4462C56.8994 54.2544 58.5022 52.5981 59.6301 50.6282C59.8191 50.2998 60.0813 50.0192 60.3963 49.8084C60.7112 49.5975 61.0705 49.462 61.4462 49.4124C61.822 49.3627 62.2041 49.4003 62.563 49.5221C62.9219 49.6439 63.248 49.8467 63.5159 50.1147L75.8078 62.4091C76.1529 62.7544 76.388 63.1942 76.4832 63.673C76.5784 64.1519 76.5295 64.6482 76.3427 65.0992C76.1559 65.5502 75.8396 65.9358 75.4337 66.207C75.0278 66.4783 74.5506 66.6232 74.0624 66.6233H65.9748V74.7109C65.9748 75.3657 65.7147 75.9936 65.2517 76.4566C64.7887 76.9196 64.1608 77.1797 63.506 77.1797ZM53.7298 61.4438L61.0373 68.7513V64.1545C61.0373 63.4998 61.2974 62.8718 61.7603 62.4089C62.2233 61.9459 62.8513 61.6858 63.506 61.6858H68.1028L62.1062 55.6867C59.907 58.3509 57.0051 60.3454 53.7298 61.4438Z" fill="#FBAF40"/>
<path d="M32.0814 77.1796C31.4266 77.1796 30.7987 76.9195 30.3357 76.4566C29.8727 75.9936 29.6126 75.3656 29.6126 74.7109V66.6233H21.5225C21.0349 66.622 20.5585 66.4765 20.1534 66.205C19.7482 65.9335 19.4325 65.5482 19.2459 65.0977C19.0593 64.6471 19.0101 64.1514 19.1047 63.673C19.1992 63.1946 19.4332 62.7548 19.7771 62.4091L32.0715 50.1147C32.3394 49.8466 32.6655 49.6438 33.0244 49.522C33.3833 49.4002 33.7654 49.3627 34.1412 49.4124C34.5169 49.462 34.8762 49.5975 35.1911 49.8084C35.5061 50.0192 35.7682 50.2998 35.9573 50.6282C37.085 52.5971 38.6872 54.2527 40.618 55.4445C42.5487 56.6363 44.7469 57.3263 47.0124 57.4519C47.4889 57.4767 47.9479 57.6394 48.3337 57.9202C48.7195 58.201 49.0155 58.5877 49.1857 59.0335C49.3559 59.4792 49.393 59.9648 49.2925 60.4313C49.192 60.8977 48.9582 61.325 48.6195 61.6611L33.8268 76.4563C33.5977 76.6857 33.3256 76.8676 33.0261 76.9917C32.7266 77.1159 32.4056 77.1797 32.0814 77.1796ZM27.4846 61.6858H32.0814C32.7361 61.6858 33.3641 61.9459 33.8271 62.4088C34.29 62.8718 34.5501 63.4998 34.5501 64.1545V68.7513L41.8576 61.4438C38.5818 60.3461 35.6792 58.3526 33.4787 55.6892L27.4846 61.6858ZM39.5 17.2729H14.1533C13.4986 17.2729 12.8706 17.0128 12.4077 16.5499C11.9447 16.0869 11.6846 15.459 11.6846 14.8042C11.6846 14.1494 11.9447 13.5215 12.4077 13.0585C12.8706 12.5955 13.4986 12.3354 14.1533 12.3354H39.5C40.1547 12.3354 40.7827 12.5955 41.2456 13.0585C41.7086 13.5215 41.9687 14.1494 41.9687 14.8042C41.9687 15.459 41.7086 16.0869 41.2456 16.5499C40.7827 17.0128 40.1547 17.2729 39.5 17.2729ZM29.5633 26.4518H14.1533C13.4986 26.4518 12.8706 26.1917 12.4077 25.7287C11.9447 25.2657 11.6846 24.6378 11.6846 23.983C11.6846 23.3283 11.9447 22.7003 12.4077 22.2373C12.8706 21.7744 13.4986 21.5143 14.1533 21.5143H29.5633C30.218 21.5143 30.8459 21.7744 31.3089 22.2373C31.7719 22.7003 32.032 23.3283 32.032 23.983C32.032 24.6378 31.7719 25.2657 31.3089 25.7287C30.8459 26.1917 30.218 26.4518 29.5633 26.4518Z" fill="#FBAF40"/>
</svg>