<svg xmlns="http://www.w3.org/2000/svg" width="24" height="25" viewBox="0 0 24 25" fill="none">
<path d="M12 16.4112C11.8684 16.4119 11.7379 16.3867 11.6161 16.3369C11.4943 16.2872 11.3835 16.2138 11.29 16.1212L7.29002 12.1212C7.12619 11.9299 7.04059 11.6838 7.05031 11.4321C7.06003 11.1804 7.16436 10.9417 7.34245 10.7636C7.52055 10.5855 7.75929 10.4812 8.01096 10.4714C8.26264 10.4617 8.50872 10.5473 8.70002 10.7112L12 14.0012L15.29 10.7112C15.4813 10.5473 15.7274 10.4617 15.9791 10.4714C16.2307 10.4812 16.4695 10.5855 16.6476 10.7636C16.8257 10.9417 16.93 11.1804 16.9397 11.4321C16.9494 11.6838 16.8638 11.9299 16.7 12.1212L12.7 16.1212C12.5138 16.3059 12.2624 16.4101 12 16.4112Z" fill="#FBAF40"/>
<path d="M12 16.4111C11.7348 16.4111 11.4804 16.3058 11.2929 16.1182C11.1054 15.9307 11 15.6763 11 15.4111V5.41113C11 5.14592 11.1054 4.89156 11.2929 4.70403C11.4804 4.51649 11.7348 4.41113 12 4.41113C12.2652 4.41113 12.5196 4.51649 12.7071 4.70403C12.8946 4.89156 13 5.14592 13 5.41113V15.4111C13 15.6763 12.8946 15.9307 12.7071 16.1182C12.5196 16.3058 12.2652 16.4111 12 16.4111ZM19 20.4111H5C4.73478 20.4111 4.48043 20.3058 4.29289 20.1182C4.10536 19.9307 4 19.6763 4 19.4111C4 19.1459 4.10536 18.8916 4.29289 18.704C4.48043 18.5165 4.73478 18.4111 5 18.4111H19C19.2652 18.4111 19.5196 18.5165 19.7071 18.704C19.8946 18.8916 20 19.1459 20 19.4111C20 19.6763 19.8946 19.9307 19.7071 20.1182C19.5196 20.3058 19.2652 20.4111 19 20.4111Z" fill="#FBAF40"/>
</svg>