<svg xmlns="http://www.w3.org/2000/svg" width="122" height="36" viewBox="0 0 122 36" fill="none">
<path d="M69.995 6.55615V11.8798H57.7093V15.1646H69.995V20.4882H57.7093V23.773H69.995V29.0966H51.1719V6.55615H69.995Z" fill="#697B86"/>
<path d="M102.006 6.55615V15.1646H109.107V6.55615H115.531V29.2099C115.449 29.2405 115.396 29.0966 115.362 29.0966H109.107V20.4882H102.006V29.0966H95.5811V6.55615H102.006Z" fill="#697B86"/>
<path d="M93.6648 20.3746C93.6727 20.5819 93.6084 20.7755 93.5419 20.9681C92.3314 24.467 89.9351 27.3689 86.202 28.5628C76.1717 31.7683 67.557 20.5264 73.2569 11.7095C78.2524 3.98347 89.571 5.0516 93.1215 13.3882C93.3469 13.9171 93.498 14.5016 93.6648 15.0509H87.7473C84.4313 9.28671 75.6419 12.7289 77.2639 19.243C78.506 24.2302 85.5314 24.9948 87.691 20.3746H93.6648Z" fill="#697B86"/>
<path d="M49.7067 6.55615V13.1257H42.6058V29.0966H36.1811V23.0367C36.1811 22.9427 36.8349 21.6401 36.9386 21.306C38.8513 15.1691 35.302 8.57913 29.0858 7.11796L29.0813 6.55615H49.7079H49.7067Z" fill="#697B86"/>
<path d="M25.2231 8.5131C29.105 8.07362 32.7975 9.72168 34.735 13.1628C39.0869 20.8911 31.5002 29.7951 23.325 26.6678L17.2678 17.9212L23.1086 9.33316C23.5268 8.79287 24.5638 8.58672 25.222 8.51197L25.2231 8.5131ZM26.0121 13.4969C20.4509 14.1448 21.374 22.7306 26.8812 22.299C32.7547 21.8392 31.9972 12.7992 26.0121 13.4969Z" fill="#697B86"/>
<path d="M23.3318 29.0965H15.3291L8.45361 19.2421V29.0965H3.21244C3.17975 29.0965 2.73341 28.8201 2.64887 28.7567C1.06186 27.5606 2.73679 24.8172 3.51564 23.5112C7.28816 17.192 14.2223 12.847 20.851 10.0674L15.5715 17.9112L23.3318 29.0965Z" fill="#697B86"/>
<path d="M7.77713 6.55615V13.7487C5.21515 15.373 3.01273 17.4628 1.23975 19.9218V6.55615H7.77713Z" fill="#697B86"/>
<path d="M22.6554 6.55615L20.8464 9.09903C17.4605 9.69143 14.1287 10.5761 10.9907 11.9942L14.7091 6.55615H22.6554Z" fill="#697B86"/>
<path d="M120.153 15.844H119.476V13.9751C119.476 13.2989 118.778 13.4167 118.237 13.5786V15.1644C118.63 15.1961 118.625 14.7804 119.138 14.9379V15.8451L117.609 15.7387C117.615 14.9311 117.17 12.9273 118.286 12.7812C118.865 12.7053 120.152 12.6872 120.152 13.5231V15.8451L120.153 15.844Z" fill="#697B86"/>
<path d="M119.138 26.1514L119.124 26.9307C118.561 27.2082 118.674 26.8355 118.236 26.831L118.285 28.3114C118.406 28.4847 119.32 28.5062 119.475 28.248V26.1525H120.151V28.4745C120.151 28.5243 119.94 28.948 119.88 28.9944C119.426 29.1564 117.559 29.3059 117.559 28.5878V26.1525H119.137L119.138 26.1514Z" fill="#697B86"/>
<path d="M120.152 6.55615V8.93479H119.476V7.23576H119.138V8.93479H118.574V7.23576H118.236V8.93479H117.56V6.55615H120.152Z" fill="#697B86"/>
<path d="M119.984 9.3877C120.627 10.1319 119.261 10.9134 118.719 11.3937C118.642 11.4616 118.505 11.3858 118.575 11.6531H120.153V12.3327H117.56C117.065 11.5862 119.139 10.483 119.139 10.3493C119.139 9.85549 117.892 10.1375 117.559 10.0684V9.3877H119.984Z" fill="#697B86"/>
<path d="M120.153 22.6401C120.402 23.7445 118.985 24.1104 118.462 24.9055H120.153V25.5851H117.56C117.319 24.6846 118.199 24.4264 118.747 23.8895C118.904 23.7354 119.155 23.5655 119.138 23.3197H117.56L117.729 22.6401H120.153Z" fill="#697B86"/>
<path d="M120.133 20.1664L120.041 20.9989L117.56 22.186C117.298 21.0556 118.836 21.1847 119.362 20.4892C119.12 20.3873 117.63 19.7609 117.578 19.6771C117.49 19.5355 117.596 19.1028 117.561 18.9023L120.133 20.1664Z" fill="#697B86"/>
<path d="M120.152 16.2969V16.9765H118.236L118.237 18.4501L117.56 18.449V16.2969H120.152Z" fill="#697B86"/>
<path d="M26.012 13.4969C31.9971 12.7991 32.7545 21.8391 26.881 22.299C21.3738 22.7305 20.4496 14.1448 26.012 13.4969Z" fill="white"/>
</svg>