<svg xmlns="http://www.w3.org/2000/svg" width="35" height="35" viewBox="0 0 35 35" fill="none">
<g clip-path="url(#clip0_688_3579)">
<path d="M10.2083 8.75016H33.5417C33.9284 8.75016 34.2994 8.59652 34.5729 8.32303C34.8464 8.04954 35 7.6786 35 7.29183C35 6.90506 34.8464 6.53412 34.5729 6.26063C34.2994 5.98714 33.9284 5.8335 33.5417 5.8335H10.2083C9.82156 5.8335 9.45063 5.98714 9.17714 6.26063C8.90365 6.53412 8.75 6.90506 8.75 7.29183C8.75 7.6786 8.90365 8.04954 9.17714 8.32303C9.45063 8.59652 9.82156 8.75016 10.2083 8.75016Z" fill="black"/>
<path d="M33.5417 16.0415H10.2083C9.82156 16.0415 9.45063 16.1951 9.17714 16.4686C8.90365 16.7421 8.75 17.1131 8.75 17.4998C8.75 17.8866 8.90365 18.2575 9.17714 18.531C9.45063 18.8045 9.82156 18.9582 10.2083 18.9582H33.5417C33.9284 18.9582 34.2994 18.8045 34.5729 18.531C34.8464 18.2575 35 17.8866 35 17.4998C35 17.1131 34.8464 16.7421 34.5729 16.4686C34.2994 16.1951 33.9284 16.0415 33.5417 16.0415Z" fill="black"/>
<path d="M33.5417 26.25H10.2083C9.82156 26.25 9.45063 26.4036 9.17714 26.6771C8.90365 26.9506 8.75 27.3216 8.75 27.7083C8.75 28.0951 8.90365 28.466 9.17714 28.7395C9.45063 29.013 9.82156 29.1667 10.2083 29.1667H33.5417C33.9284 29.1667 34.2994 29.013 34.5729 28.7395C34.8464 28.466 35 28.0951 35 27.7083C35 27.3216 34.8464 26.9506 34.5729 26.6771C34.2994 26.4036 33.9284 26.25 33.5417 26.25Z" fill="black"/>
<path d="M2.91667 10.2083C4.5275 10.2083 5.83333 8.9025 5.83333 7.29167C5.83333 5.68084 4.5275 4.375 2.91667 4.375C1.30584 4.375 0 5.68084 0 7.29167C0 8.9025 1.30584 10.2083 2.91667 10.2083Z" fill="black"/>
<path d="M2.91667 20.4168C4.5275 20.4168 5.83333 19.111 5.83333 17.5002C5.83333 15.8893 4.5275 14.5835 2.91667 14.5835C1.30584 14.5835 0 15.8893 0 17.5002C0 19.111 1.30584 20.4168 2.91667 20.4168Z" fill="black"/>
<path d="M2.91667 30.6248C4.5275 30.6248 5.83333 29.319 5.83333 27.7082C5.83333 26.0973 4.5275 24.7915 2.91667 24.7915C1.30584 24.7915 0 26.0973 0 27.7082C0 29.319 1.30584 30.6248 2.91667 30.6248Z" fill="black"/>
</g>
<defs>
<clipPath id="clip0_688_3579">
<rect width="35" height="35" fill="white"/>
</clipPath>
</defs>
</svg>